<?xml version="1.0" encoding="UTF-8"?>
<svg xmlns="http://www.w3.org/2000/svg" xmlns:xlink="http://www.w3.org/1999/xlink" width="504px" height="504px" viewBox="0 0 504 504" version="1.1">
  <metadata xmlns:gridsvg="http://www.stat.auckland.ac.nz/~paul/R/gridSVG/">
    <gridsvg:generator name="gridSVG" version="1.7-4" time="2023-01-24 09:00:45"/>
    <gridsvg:argument name="name" value="smooth_area-SVG.svg"/>
    <gridsvg:argument name="exportCoords" value="none"/>
    <gridsvg:argument name="exportMappings" value="none"/>
    <gridsvg:argument name="exportJS" value="none"/>
    <gridsvg:argument name="res" value="72"/>
    <gridsvg:argument name="prefix" value=""/>
    <gridsvg:argument name="addClasses" value="FALSE"/>
    <gridsvg:argument name="indent" value="TRUE"/>
    <gridsvg:argument name="htmlWrapper" value="FALSE"/>
    <gridsvg:argument name="usePaths" value="vpPaths"/>
    <gridsvg:argument name="uniqueNames" value="TRUE"/>
    <gridsvg:separator name="id.sep" value="."/>
    <gridsvg:separator name="gPath.sep" value="::"/>
    <gridsvg:separator name="vpPath.sep" value="::"/>
  </metadata>
  <g transform="translate(0, 504) scale(1, -1)">
    <g id="gridSVG" fill="none" stroke="rgb(0,0,0)" stroke-dasharray="none" stroke-width="0.75" font-size="12" font-family="Helvetica, Arial, FreeSans, Liberation Sans, Nimbus Sans L, sans-serif" opacity="1" stroke-linecap="round" stroke-linejoin="round" stroke-miterlimit="10" stroke-opacity="1" fill-opacity="0" font-weight="normal" font-style="normal">
      <g id="layout.1">
        <g id="layout.2">
          <defs>
            <clipPath id="layout::background.1-9-12-1.1.clipPath">
              <rect x="0" y="0" width="504" height="504" fill="none" stroke="none"/>
            </clipPath>
          </defs>
          <g id="layout::background.1-9-12-1.1" clip-path="url(#layout::background.1-9-12-1.1.clipPath)">
            <g id="background.1-9-12-1.1">
              <g id="plot.background..rect.111.1">
                <rect id="plot.background..rect.111.1.1" x="0" y="0" width="504" height="504" transform="" stroke-width="1.07" stroke="rgb(255,255,255)" fill="rgb(255,255,255)" stroke-dasharray="none" stroke-opacity="1" fill-opacity="1"/>
              </g>
            </g>
          </g>
          <defs>
            <clipPath id="layout::panel.7-5-7-5.1.clipPath">
              <rect x="28.47" y="31.91" width="470.05" height="466.61" fill="none" stroke="none"/>
            </clipPath>
          </defs>
          <g id="layout::panel.7-5-7-5.1" clip-path="url(#layout::panel.7-5-7-5.1.clipPath)">
            <g id="panel.7-5-7-5.1">
              <g id="panel-1.gTree.91.1">
                <g id="grill.gTree.89.1">
                  <g id="panel.background..rect.80.1">
                    <rect id="panel.background..rect.80.1.1" x="28.47" y="31.91" width="470.05" height="466.61" transform="" stroke-width="1.07" stroke="none" fill="rgb(235,235,235)" stroke-dasharray="none" stroke-opacity="0" fill-opacity="1"/>
                  </g>
                  <g id="panel.grid.minor.y..polyline.82.1">
                    <polyline id="panel.grid.minor.y..polyline.82.1.1" points="28.47,67.44 498.52,67.44" stroke="rgb(255,255,255)" fill="none" stroke-width="0.53" stroke-dasharray="none" stroke-linecap="butt" stroke-opacity="1" fill-opacity="1"/>
                    <polyline id="panel.grid.minor.y..polyline.82.1.2" points="28.47,160.61 498.52,160.61" stroke="rgb(255,255,255)" fill="none" stroke-width="0.53" stroke-dasharray="none" stroke-linecap="butt" stroke-opacity="1" fill-opacity="1"/>
                    <polyline id="panel.grid.minor.y..polyline.82.1.3" points="28.47,253.77 498.52,253.77" stroke="rgb(255,255,255)" fill="none" stroke-width="0.53" stroke-dasharray="none" stroke-linecap="butt" stroke-opacity="1" fill-opacity="1"/>
                    <polyline id="panel.grid.minor.y..polyline.82.1.4" points="28.47,346.93 498.52,346.93" stroke="rgb(255,255,255)" fill="none" stroke-width="0.53" stroke-dasharray="none" stroke-linecap="butt" stroke-opacity="1" fill-opacity="1"/>
                    <polyline id="panel.grid.minor.y..polyline.82.1.5" points="28.47,440.1 498.52,440.1" stroke="rgb(255,255,255)" fill="none" stroke-width="0.53" stroke-dasharray="none" stroke-linecap="butt" stroke-opacity="1" fill-opacity="1"/>
                  </g>
                  <g id="panel.grid.minor.x..polyline.84.1">
                    <polyline id="panel.grid.minor.x..polyline.84.1.1" points="133.94,31.91 133.94,498.52" stroke="rgb(255,255,255)" fill="none" stroke-width="0.53" stroke-dasharray="none" stroke-linecap="butt" stroke-opacity="1" fill-opacity="1"/>
                    <polyline id="panel.grid.minor.x..polyline.84.1.2" points="240.53,31.91 240.53,498.52" stroke="rgb(255,255,255)" fill="none" stroke-width="0.53" stroke-dasharray="none" stroke-linecap="butt" stroke-opacity="1" fill-opacity="1"/>
                    <polyline id="panel.grid.minor.x..polyline.84.1.3" points="347.12,31.91 347.12,498.52" stroke="rgb(255,255,255)" fill="none" stroke-width="0.53" stroke-dasharray="none" stroke-linecap="butt" stroke-opacity="1" fill-opacity="1"/>
                    <polyline id="panel.grid.minor.x..polyline.84.1.4" points="453.71,31.91 453.71,498.52" stroke="rgb(255,255,255)" fill="none" stroke-width="0.53" stroke-dasharray="none" stroke-linecap="butt" stroke-opacity="1" fill-opacity="1"/>
                  </g>
                  <g id="panel.grid.major.y..polyline.86.1">
                    <polyline id="panel.grid.major.y..polyline.86.1.2" points="28.47,114.02 498.52,114.02" stroke="rgb(255,255,255)" fill="none" stroke-width="1.07" stroke-dasharray="none" stroke-linecap="butt" stroke-opacity="1" fill-opacity="1"/>
                    <polyline id="panel.grid.major.y..polyline.86.1.3" points="28.47,207.19 498.52,207.19" stroke="rgb(255,255,255)" fill="none" stroke-width="1.07" stroke-dasharray="none" stroke-linecap="butt" stroke-opacity="1" fill-opacity="1"/>
                    <polyline id="panel.grid.major.y..polyline.86.1.4" points="28.47,300.35 498.52,300.35" stroke="rgb(255,255,255)" fill="none" stroke-width="1.07" stroke-dasharray="none" stroke-linecap="butt" stroke-opacity="1" fill-opacity="1"/>
                    <polyline id="panel.grid.major.y..polyline.86.1.5" points="28.47,393.51 498.52,393.51" stroke="rgb(255,255,255)" fill="none" stroke-width="1.07" stroke-dasharray="none" stroke-linecap="butt" stroke-opacity="1" fill-opacity="1"/>
                    <polyline id="panel.grid.major.y..polyline.86.1.6" points="28.47,486.68 498.52,486.68" stroke="rgb(255,255,255)" fill="none" stroke-width="1.07" stroke-dasharray="none" stroke-linecap="butt" stroke-opacity="1" fill-opacity="1"/>
                  </g>
                  <g id="panel.grid.major.x..polyline.88.1">
                    <polyline id="panel.grid.major.x..polyline.88.1.2" points="80.64,31.91 80.64,498.52" stroke="rgb(255,255,255)" fill="none" stroke-width="1.07" stroke-dasharray="none" stroke-linecap="butt" stroke-opacity="1" fill-opacity="1"/>
                    <polyline id="panel.grid.major.x..polyline.88.1.3" points="187.23,31.91 187.23,498.52" stroke="rgb(255,255,255)" fill="none" stroke-width="1.07" stroke-dasharray="none" stroke-linecap="butt" stroke-opacity="1" fill-opacity="1"/>
                    <polyline id="panel.grid.major.x..polyline.88.1.4" points="293.82,31.91 293.82,498.52" stroke="rgb(255,255,255)" fill="none" stroke-width="1.07" stroke-dasharray="none" stroke-linecap="butt" stroke-opacity="1" fill-opacity="1"/>
                    <polyline id="panel.grid.major.x..polyline.88.1.5" points="400.41,31.91 400.41,498.52" stroke="rgb(255,255,255)" fill="none" stroke-width="1.07" stroke-dasharray="none" stroke-linecap="butt" stroke-opacity="1" fill-opacity="1"/>
                  </g>
                </g>
                <g id="geom_smooth.gTree.76.1">
                  <g id="geom_ribbon.gTree.73.1">
                    <g id="GRID.polygon.70.1">
                      <polygon id="GRID.polygon.70.1.1" points="49.84,115.26 55.25,121.32 60.66,127.53 66.07,133.87 71.47,140.35 76.88,147.02 82.29,153.87 87.7,160.91 93.11,168.12 98.52,175.44 103.93,182.81 109.34,190.13 114.75,197.35 120.16,204.42 125.57,211.28 130.97,217.9 136.38,224.37 141.79,230.69 147.2,236.73 152.61,242.35 158.02,247.37 163.43,251.77 168.84,255.65 174.25,259.08 179.66,262.17 185.07,265 190.47,267.67 195.88,270.25 201.29,272.78 206.7,275.27 212.11,277.72 217.52,280.08 222.93,282.32 228.34,284.37 233.75,286.18 239.16,287.69 244.56,288.86 249.97,289.63 255.38,289.24 260.79,288.22 266.2,287.57 271.61,287.37 277.02,286.08 282.43,284.03 287.84,281.74 293.25,279.64 298.66,278.14 304.06,277.55 309.47,278.12 314.88,279.98 320.29,282.19 325.7,284.49 331.11,286.95 336.52,289.63 341.93,292.56 347.34,295.79 352.75,299.37 358.16,303.33 363.56,307.59 368.97,312.1 374.38,316.87 379.79,321.9 385.2,327.23 390.61,332.86 396.02,338.82 401.43,345.13 406.84,351.79 412.25,358.84 417.66,366.28 423.06,374.14 428.47,382.41 433.88,391.12 439.29,400.28 444.7,409.88 450.11,419.94 455.52,430.47 460.93,441.46 466.34,452.93 471.75,464.88 477.15,477.31 477.15,396.41 471.75,388.88 466.34,381.51 460.93,374.31 455.52,367.25 450.11,360.35 444.7,353.59 439.29,346.97 433.88,340.49 428.47,334.14 423.06,327.91 417.66,321.82 412.25,315.86 406.84,310.04 401.43,304.35 396.02,298.82 390.61,293.43 385.2,288.21 379.79,283.16 374.38,278.28 368.97,273.59 363.56,269.08 358.16,264.77 352.75,260.77 347.34,257.22 341.93,254.03 336.52,251.14 331.11,248.48 325.7,245.98 320.29,243.61 314.88,241.3 309.47,239.36 304.06,238.69 298.66,238.97 293.25,239.76 287.84,240.69 282.43,241.48 277.02,241.91 271.61,241.79 266.2,241.04 260.79,240.57 255.38,240.13 249.97,239.31 244.56,238.23 239.16,237.35 233.75,236.63 228.34,235.96 222.93,235.27 217.52,234.46 212.11,233.45 206.7,232.13 201.29,230.45 195.88,228.36 190.47,225.84 185.07,222.89 179.66,219.56 174.25,215.88 168.84,211.93 163.43,207.76 158.02,203.42 152.61,198.96 147.2,194.28 141.79,189.31 136.38,184.14 130.97,178.88 125.57,173.56 120.16,167.99 114.75,162.14 109.34,155.99 103.93,149.48 98.52,142.55 93.11,135.11 87.7,127.08 82.29,118.41 76.88,109.09 71.47,99.11 66.07,88.49 60.66,77.27 55.25,65.47 49.84,53.12" fill="rgb(153,153,153)" stroke="none" stroke-width="0" stroke-dasharray="none" stroke-linecap="butt" stroke-linejoin="round" stroke-miterlimit="10" stroke-opacity="0" fill-opacity="0.4"/>
                    </g>
                    <g id="GRID.polyline.71.1">
                      <polyline id="GRID.polyline.71.1.1" points="49.84,115.26 55.25,121.32 60.66,127.53 66.07,133.87 71.47,140.35 76.88,147.02 82.29,153.87 87.7,160.91 93.11,168.12 98.52,175.44 103.93,182.81 109.34,190.13 114.75,197.35 120.16,204.42 125.57,211.28 130.97,217.9 136.38,224.37 141.79,230.69 147.2,236.73 152.61,242.35 158.02,247.37 163.43,251.77 168.84,255.65 174.25,259.08 179.66,262.17 185.07,265 190.47,267.67 195.88,270.25 201.29,272.78 206.7,275.27 212.11,277.72 217.52,280.08 222.93,282.32 228.34,284.37 233.75,286.18 239.16,287.69 244.56,288.86 249.97,289.63 255.38,289.24 260.79,288.22 266.2,287.57 271.61,287.37 277.02,286.08 282.43,284.03 287.84,281.74 293.25,279.64 298.66,278.14 304.06,277.55 309.47,278.12 314.88,279.98 320.29,282.19 325.7,284.49 331.11,286.95 336.52,289.63 341.93,292.56 347.34,295.79 352.75,299.37 358.16,303.33 363.56,307.59 368.97,312.1 374.38,316.87 379.79,321.9 385.2,327.23 390.61,332.86 396.02,338.82 401.43,345.13 406.84,351.79 412.25,358.84 417.66,366.28 423.06,374.14 428.47,382.41 433.88,391.12 439.29,400.28 444.7,409.88 450.11,419.94 455.52,430.47 460.93,441.46 466.34,452.93 471.75,464.88 477.15,477.31" stroke="none" stroke-width="2.13" stroke-dasharray="none" stroke-linecap="butt" stroke-linejoin="round" stroke-miterlimit="10" stroke-opacity="0" fill="none"/>
                      <polyline id="GRID.polyline.71.1.2" points="477.15,396.41 471.75,388.88 466.34,381.51 460.93,374.31 455.52,367.25 450.11,360.35 444.7,353.59 439.29,346.97 433.88,340.49 428.47,334.14 423.06,327.91 417.66,321.82 412.25,315.86 406.84,310.04 401.43,304.35 396.02,298.82 390.61,293.43 385.2,288.21 379.79,283.16 374.38,278.28 368.97,273.59 363.56,269.08 358.16,264.77 352.75,260.77 347.34,257.22 341.93,254.03 336.52,251.14 331.11,248.48 325.7,245.98 320.29,243.61 314.88,241.3 309.47,239.36 304.06,238.69 298.66,238.97 293.25,239.76 287.84,240.69 282.43,241.48 277.02,241.91 271.61,241.79 266.2,241.04 260.79,240.57 255.38,240.13 249.97,239.31 244.56,238.23 239.16,237.35 233.75,236.63 228.34,235.96 222.93,235.27 217.52,234.46 212.11,233.45 206.7,232.13 201.29,230.45 195.88,228.36 190.47,225.84 185.07,222.89 179.66,219.56 174.25,215.88 168.84,211.93 163.43,207.76 158.02,203.42 152.61,198.96 147.2,194.28 141.79,189.31 136.38,184.14 130.97,178.88 125.57,173.56 120.16,167.99 114.75,162.14 109.34,155.99 103.93,149.48 98.52,142.55 93.11,135.11 87.7,127.08 82.29,118.41 76.88,109.09 71.47,99.11 66.07,88.49 60.66,77.27 55.25,65.47 49.84,53.12" stroke="none" stroke-width="2.13" stroke-dasharray="none" stroke-linecap="butt" stroke-linejoin="round" stroke-miterlimit="10" stroke-opacity="0" fill="none"/>
                    </g>
                  </g>
                  <g id="GRID.polyline.74.1">
                    <polyline id="GRID.polyline.74.1.1" points="49.84,84.19 55.25,93.4 60.66,102.4 66.07,111.18 71.47,119.73 76.88,128.05 82.29,136.14 87.7,144 93.11,151.61 98.52,159 103.93,166.14 109.34,173.06 114.75,179.75 120.16,186.2 125.57,192.42 130.97,198.39 136.38,204.25 141.79,210 147.2,215.51 152.61,220.65 158.02,225.39 163.43,229.76 168.84,233.79 174.25,237.48 179.66,240.86 185.07,243.95 190.47,246.76 195.88,249.31 201.29,251.62 206.7,253.7 212.11,255.58 217.52,257.27 222.93,258.8 228.34,260.17 233.75,261.4 239.16,262.52 244.56,263.55 249.97,264.47 255.38,264.69 260.79,264.4 266.2,264.31 271.61,264.58 277.02,263.99 282.43,262.76 287.84,261.21 293.25,259.7 298.66,258.56 304.06,258.12 309.47,258.74 314.88,260.64 320.29,262.9 325.7,265.24 331.11,267.71 336.52,270.38 341.93,273.29 347.34,276.5 352.75,280.07 358.16,284.05 363.56,288.34 368.97,292.84 374.38,297.57 379.79,302.53 385.2,307.72 390.61,313.15 396.02,318.82 401.43,324.74 406.84,330.92 412.25,337.35 417.66,344.05 423.06,351.03 428.47,358.28 433.88,365.81 439.29,373.63 444.7,381.74 450.11,390.15 455.52,398.86 460.93,407.88 466.34,417.22 471.75,426.88 477.15,436.86" stroke="rgb(51,102,255)" fill="none" stroke-width="2.13" stroke-dasharray="none" stroke-linecap="butt" stroke-linejoin="round" stroke-miterlimit="10" stroke-opacity="1" fill-opacity="1"/>
                  </g>
                </g>
              </g>
            </g>
          </g>
          <g id="layout::spacer.8-6-8-6.1">
            <g id="spacer.8-6-8-6.1"/>
          </g>
          <g id="layout::spacer.8-4-8-4.1">
            <g id="spacer.8-4-8-4.1"/>
          </g>
          <g id="layout::spacer.6-6-6-6.1">
            <g id="spacer.6-6-6-6.1"/>
          </g>
          <g id="layout::spacer.6-4-6-4.1">
            <g id="spacer.6-4-6-4.1"/>
          </g>
          <g id="layout::axis-t.6-5-6-5.1">
            <g id="axis-t.6-5-6-5.1"/>
          </g>
          <g id="layout::axis-l.7-4-7-4.1">
            <g id="axis-l.7-4-7-4.1">
              <g id="layout::axis-l.7-4-7-4::GRID.VP.16.1">
                <g id="GRID.absoluteGrob.99.1">
                  <g id="layout::axis-l.7-4-7-4::GRID.VP.16::axis.1">
                    <g id="axis.1">
                      <g id="layout::axis-l.7-4-7-4::GRID.VP.16::axis::axis.1-1-1-1.1">
                        <g id="axis.1-1-1-1.1">
                          <g id="layout::axis-l.7-4-7-4::GRID.VP.16::axis::axis.1-1-1-1::GRID.VP.14.1" font-size="8.8" stroke="rgb(77,77,77)" font-family="Helvetica, Arial, FreeSans, Liberation Sans, Nimbus Sans L, sans-serif" stroke-opacity="1" font-weight="normal" font-style="normal">
                            <g id="layout::axis-l.7-4-7-4::GRID.VP.16::axis::axis.1-1-1-1::GRID.VP.14::GRID.VP.15.1">
                              <g id="GRID.titleGrob.97.1">
                                <g id="GRID.text.96.1">
                                  <g id="GRID.text.96.1.1" transform="translate(23.54, 114.02)" stroke-width="0.1">
                                    <g id="GRID.text.96.1.1.scale" transform="scale(1, -1)">
                                      <text x="0" y="0" id="GRID.text.96.1.1.text" text-anchor="end" font-size="8.8" stroke="rgb(77,77,77)" font-family="Helvetica, Arial, FreeSans, Liberation Sans, Nimbus Sans L, sans-serif" fill="rgb(77,77,77)" stroke-opacity="1" fill-opacity="1" font-weight="normal" font-style="normal">
                                        <tspan id="GRID.text.96.1.1.tspan.1" dy="3.23" x="0">2</tspan>
                                      </text>
                                    </g>
                                  </g>
                                  <g id="GRID.text.96.1.2" transform="translate(23.54, 207.19)" stroke-width="0.1">
                                    <g id="GRID.text.96.1.2.scale" transform="scale(1, -1)">
                                      <text x="0" y="0" id="GRID.text.96.1.2.text" text-anchor="end" font-size="8.8" stroke="rgb(77,77,77)" font-family="Helvetica, Arial, FreeSans, Liberation Sans, Nimbus Sans L, sans-serif" fill="rgb(77,77,77)" stroke-opacity="1" fill-opacity="1" font-weight="normal" font-style="normal">
                                        <tspan id="GRID.text.96.1.2.tspan.1" dy="3.23" x="0">3</tspan>
                                      </text>
                                    </g>
                                  </g>
                                  <g id="GRID.text.96.1.3" transform="translate(23.54, 300.35)" stroke-width="0.1">
                                    <g id="GRID.text.96.1.3.scale" transform="scale(1, -1)">
                                      <text x="0" y="0" id="GRID.text.96.1.3.text" text-anchor="end" font-size="8.8" stroke="rgb(77,77,77)" font-family="Helvetica, Arial, FreeSans, Liberation Sans, Nimbus Sans L, sans-serif" fill="rgb(77,77,77)" stroke-opacity="1" fill-opacity="1" font-weight="normal" font-style="normal">
                                        <tspan id="GRID.text.96.1.3.tspan.1" dy="3.23" x="0">4</tspan>
                                      </text>
                                    </g>
                                  </g>
                                  <g id="GRID.text.96.1.4" transform="translate(23.54, 393.51)" stroke-width="0.1">
                                    <g id="GRID.text.96.1.4.scale" transform="scale(1, -1)">
                                      <text x="0" y="0" id="GRID.text.96.1.4.text" text-anchor="end" font-size="8.8" stroke="rgb(77,77,77)" font-family="Helvetica, Arial, FreeSans, Liberation Sans, Nimbus Sans L, sans-serif" fill="rgb(77,77,77)" stroke-opacity="1" fill-opacity="1" font-weight="normal" font-style="normal">
                                        <tspan id="GRID.text.96.1.4.tspan.1" dy="3.23" x="0">5</tspan>
                                      </text>
                                    </g>
                                  </g>
                                  <g id="GRID.text.96.1.5" transform="translate(23.54, 486.68)" stroke-width="0.1">
                                    <g id="GRID.text.96.1.5.scale" transform="scale(1, -1)">
                                      <text x="0" y="0" id="GRID.text.96.1.5.text" text-anchor="end" font-size="8.8" stroke="rgb(77,77,77)" font-family="Helvetica, Arial, FreeSans, Liberation Sans, Nimbus Sans L, sans-serif" fill="rgb(77,77,77)" stroke-opacity="1" fill-opacity="1" font-weight="normal" font-style="normal">
                                        <tspan id="GRID.text.96.1.5.tspan.1" dy="3.23" x="0">6</tspan>
                                      </text>
                                    </g>
                                  </g>
                                </g>
                              </g>
                            </g>
                          </g>
                        </g>
                      </g>
                      <g id="layout::axis-l.7-4-7-4::GRID.VP.16::axis::axis.1-2-1-2.1">
                        <g id="axis.1-2-1-2.1">
                          <g id="GRID.polyline.98.1">
                            <polyline id="GRID.polyline.98.1.1" points="25.73,114.02 28.47,114.02" stroke="rgb(51,51,51)" fill="none" stroke-width="1.07" stroke-dasharray="none" stroke-linecap="butt" stroke-opacity="1" fill-opacity="1"/>
                            <polyline id="GRID.polyline.98.1.2" points="25.73,207.19 28.47,207.19" stroke="rgb(51,51,51)" fill="none" stroke-width="1.07" stroke-dasharray="none" stroke-linecap="butt" stroke-opacity="1" fill-opacity="1"/>
                            <polyline id="GRID.polyline.98.1.3" points="25.73,300.35 28.47,300.35" stroke="rgb(51,51,51)" fill="none" stroke-width="1.07" stroke-dasharray="none" stroke-linecap="butt" stroke-opacity="1" fill-opacity="1"/>
                            <polyline id="GRID.polyline.98.1.4" points="25.73,393.51 28.47,393.51" stroke="rgb(51,51,51)" fill="none" stroke-width="1.07" stroke-dasharray="none" stroke-linecap="butt" stroke-opacity="1" fill-opacity="1"/>
                            <polyline id="GRID.polyline.98.1.5" points="25.73,486.68 28.47,486.68" stroke="rgb(51,51,51)" fill="none" stroke-width="1.07" stroke-dasharray="none" stroke-linecap="butt" stroke-opacity="1" fill-opacity="1"/>
                          </g>
                        </g>
                      </g>
                    </g>
                  </g>
                </g>
              </g>
            </g>
          </g>
          <g id="layout::axis-r.7-6-7-6.1">
            <g id="axis-r.7-6-7-6.1"/>
          </g>
          <g id="layout::axis-b.8-5-8-5.1">
            <g id="axis-b.8-5-8-5.1">
              <g id="layout::axis-b.8-5-8-5::GRID.VP.13.1">
                <g id="GRID.absoluteGrob.95.1">
                  <g id="layout::axis-b.8-5-8-5::GRID.VP.13::axis.1">
                    <g id="axis.2">
                      <g id="layout::axis-b.8-5-8-5::GRID.VP.13::axis::axis.1-1-1-1.1">
                        <g id="axis.1-1-1-1.2">
                          <g id="GRID.polyline.94.1">
                            <polyline id="GRID.polyline.94.1.1" points="80.64,29.17 80.64,31.91" stroke="rgb(51,51,51)" fill="none" stroke-width="1.07" stroke-dasharray="none" stroke-linecap="butt" stroke-opacity="1" fill-opacity="1"/>
                            <polyline id="GRID.polyline.94.1.2" points="187.23,29.17 187.23,31.91" stroke="rgb(51,51,51)" fill="none" stroke-width="1.07" stroke-dasharray="none" stroke-linecap="butt" stroke-opacity="1" fill-opacity="1"/>
                            <polyline id="GRID.polyline.94.1.3" points="293.82,29.17 293.82,31.91" stroke="rgb(51,51,51)" fill="none" stroke-width="1.07" stroke-dasharray="none" stroke-linecap="butt" stroke-opacity="1" fill-opacity="1"/>
                            <polyline id="GRID.polyline.94.1.4" points="400.41,29.17 400.41,31.91" stroke="rgb(51,51,51)" fill="none" stroke-width="1.07" stroke-dasharray="none" stroke-linecap="butt" stroke-opacity="1" fill-opacity="1"/>
                          </g>
                        </g>
                      </g>
                      <g id="layout::axis-b.8-5-8-5::GRID.VP.13::axis::axis.2-1-2-1.1">
                        <g id="axis.2-1-2-1.1">
                          <g id="layout::axis-b.8-5-8-5::GRID.VP.13::axis::axis.2-1-2-1::GRID.VP.11.1" font-size="8.8" stroke="rgb(77,77,77)" font-family="Helvetica, Arial, FreeSans, Liberation Sans, Nimbus Sans L, sans-serif" stroke-opacity="1" font-weight="normal" font-style="normal">
                            <g id="layout::axis-b.8-5-8-5::GRID.VP.13::axis::axis.2-1-2-1::GRID.VP.11::GRID.VP.12.1">
                              <g id="GRID.titleGrob.93.1">
                                <g id="GRID.text.92.1">
                                  <g id="GRID.text.92.1.1" transform="translate(80.64, 26.98)" stroke-width="0.1">
                                    <g id="GRID.text.92.1.1.scale" transform="scale(1, -1)">
                                      <text x="0" y="0" id="GRID.text.92.1.1.text" text-anchor="middle" font-size="8.8" stroke="rgb(77,77,77)" font-family="Helvetica, Arial, FreeSans, Liberation Sans, Nimbus Sans L, sans-serif" fill="rgb(77,77,77)" stroke-opacity="1" fill-opacity="1" font-weight="normal" font-style="normal">
                                        <tspan id="GRID.text.92.1.1.tspan.1" dy="6.46" x="0">100</tspan>
                                      </text>
                                    </g>
                                  </g>
                                  <g id="GRID.text.92.1.2" transform="translate(187.23, 26.98)" stroke-width="0.1">
                                    <g id="GRID.text.92.1.2.scale" transform="scale(1, -1)">
                                      <text x="0" y="0" id="GRID.text.92.1.2.text" text-anchor="middle" font-size="8.8" stroke="rgb(77,77,77)" font-family="Helvetica, Arial, FreeSans, Liberation Sans, Nimbus Sans L, sans-serif" fill="rgb(77,77,77)" stroke-opacity="1" fill-opacity="1" font-weight="normal" font-style="normal">
                                        <tspan id="GRID.text.92.1.2.tspan.1" dy="6.46" x="0">200</tspan>
                                      </text>
                                    </g>
                                  </g>
                                  <g id="GRID.text.92.1.3" transform="translate(293.82, 26.98)" stroke-width="0.1">
                                    <g id="GRID.text.92.1.3.scale" transform="scale(1, -1)">
                                      <text x="0" y="0" id="GRID.text.92.1.3.text" text-anchor="middle" font-size="8.8" stroke="rgb(77,77,77)" font-family="Helvetica, Arial, FreeSans, Liberation Sans, Nimbus Sans L, sans-serif" fill="rgb(77,77,77)" stroke-opacity="1" fill-opacity="1" font-weight="normal" font-style="normal">
                                        <tspan id="GRID.text.92.1.3.tspan.1" dy="6.46" x="0">300</tspan>
                                      </text>
                                    </g>
                                  </g>
                                  <g id="GRID.text.92.1.4" transform="translate(400.41, 26.98)" stroke-width="0.1">
                                    <g id="GRID.text.92.1.4.scale" transform="scale(1, -1)">
                                      <text x="0" y="0" id="GRID.text.92.1.4.text" text-anchor="middle" font-size="8.8" stroke="rgb(77,77,77)" font-family="Helvetica, Arial, FreeSans, Liberation Sans, Nimbus Sans L, sans-serif" fill="rgb(77,77,77)" stroke-opacity="1" fill-opacity="1" font-weight="normal" font-style="normal">
                                        <tspan id="GRID.text.92.1.4.tspan.1" dy="6.46" x="0">400</tspan>
                                      </text>
                                    </g>
                                  </g>
                                </g>
                              </g>
                            </g>
                          </g>
                        </g>
                      </g>
                    </g>
                  </g>
                </g>
              </g>
            </g>
          </g>
          <g id="layout::xlab-t.5-5-5-5.1">
            <g id="xlab-t.5-5-5-5.1"/>
          </g>
          <g id="layout::xlab-b.9-5-9-5.1">
            <g id="xlab-b.9-5-9-5.1">
              <g id="layout::xlab-b.9-5-9-5::GRID.VP.17.1" font-size="11" stroke="rgb(0,0,0)" font-family="Helvetica, Arial, FreeSans, Liberation Sans, Nimbus Sans L, sans-serif" stroke-opacity="1" font-weight="normal" font-style="normal">
                <g id="layout::xlab-b.9-5-9-5::GRID.VP.17::GRID.VP.18.1">
                  <g id="axis.title.x.bottom..titleGrob.102.1">
                    <g id="GRID.text.100.1">
                      <g id="GRID.text.100.1.1" transform="translate(263.5, 15.8)" stroke-width="0.1">
                        <g id="GRID.text.100.1.1.scale" transform="scale(1, -1)">
                          <text x="0" y="0" id="GRID.text.100.1.1.text" text-anchor="middle" font-size="11" stroke="rgb(0,0,0)" font-family="Helvetica, Arial, FreeSans, Liberation Sans, Nimbus Sans L, sans-serif" fill="rgb(0,0,0)" stroke-opacity="1" fill-opacity="1" font-weight="normal" font-style="normal">
                            <tspan id="GRID.text.100.1.1.tspan.1" dy="7.9" x="0">disp</tspan>
                          </text>
                        </g>
                      </g>
                    </g>
                  </g>
                </g>
              </g>
            </g>
          </g>
          <g id="layout::ylab-l.7-3-7-3.1">
            <g id="ylab-l.7-3-7-3.1">
              <g id="layout::ylab-l.7-3-7-3::GRID.VP.19.1" font-size="11" stroke="rgb(0,0,0)" font-family="Helvetica, Arial, FreeSans, Liberation Sans, Nimbus Sans L, sans-serif" stroke-opacity="1" font-weight="normal" font-style="normal">
                <g id="layout::ylab-l.7-3-7-3::GRID.VP.19::GRID.VP.20.1">
                  <g id="axis.title.y.left..titleGrob.105.1">
                    <g id="GRID.text.103.1">
                      <g id="GRID.text.103.1.1" transform="translate(5.48, 265.22)" stroke-width="0.1">
                        <g id="GRID.text.103.1.1.scale" transform="scale(1, -1)">
                          <text x="0" y="0" id="GRID.text.103.1.1.text" transform="rotate(-90)" text-anchor="middle" font-size="11" stroke="rgb(0,0,0)" font-family="Helvetica, Arial, FreeSans, Liberation Sans, Nimbus Sans L, sans-serif" fill="rgb(0,0,0)" stroke-opacity="1" fill-opacity="1" font-weight="normal" font-style="normal">
                            <tspan id="GRID.text.103.1.1.tspan.1" dy="7.9" x="0">wt</tspan>
                          </text>
                        </g>
                      </g>
                    </g>
                  </g>
                </g>
              </g>
            </g>
          </g>
          <g id="layout::ylab-r.7-7-7-7.1">
            <g id="ylab-r.7-7-7-7.1"/>
          </g>
          <g id="layout::subtitle.4-5-4-5.1">
            <g id="subtitle.4-5-4-5.1"/>
          </g>
          <g id="layout::title.3-5-3-5.1">
            <g id="title.3-5-3-5.1"/>
          </g>
          <g id="layout::caption.10-5-10-5.1">
            <g id="caption.10-5-10-5.1"/>
          </g>
          <g id="layout::tag.2-2-2-2.1">
            <g id="tag.2-2-2-2.1"/>
          </g>
        </g>
      </g>
    </g>
  </g>
</svg>
